<svg width="367" height="93.6"><path xmlns="http://www.w3.org/2000/svg" d="M46.304 93.6c-10.211 0-20.062-4.445-26.789-12.734A689.67 689.67 0 0 0 5.58 64.29C1.136 59.243-.786 52.636.295 46.029c1.081-6.607 4.925-12.373 10.811-15.737l46.85-27.269C64.323-.7 72.011-.94 78.618 2.063c6.607 3.123 11.292 9.25 12.494 16.457l6.006 36.519a22.174 22.174 0 0 1-11.652 23.305c-6.127 3.243-14.416 7.207-24.507 11.892A33.5 33.5 0 0 1 46.304 93.6zM13.389 34.377c-4.565 2.642-7.568 7.087-8.41 12.253-.84 5.165.722 10.45 4.205 14.295 4.085 4.565 8.77 10.21 14.055 16.698 8.65 10.571 23.305 13.935 35.678 8.168 9.97-4.685 18.14-8.649 24.266-11.892 6.727-3.484 10.331-10.812 9.13-18.26L86.306 19.12c-.96-5.766-4.564-10.45-9.73-12.853-5.286-2.523-11.172-2.163-16.217.72l-46.97 27.39z" fill="#586f9b"/><path d="M117 54.217V29.355h2.486v24.862H117zm12.327-2.344H140.3l-.177 2.344H126.84V29.355h2.487v22.518zm32.287-22.518h2.487v24.862h-2.487V42.425h-13.603v11.792h-2.486V29.355h2.486v10.726h13.603V29.355zm26.89 24.862-2.416-5.612h-12.04l-2.415 5.612h-2.664L179.91 29h.32l10.938 25.217h-2.663zm-13.461-7.92h10.051l-5.043-11.685zM219.833 29h.355v25.217h-2.451V35.713l-9.519 13.035h-.213l-9.518-12.964v18.433h-2.451V29h.32l11.756 15.805zm23.446 2.7v8.737h8.17v2.344h-8.17v11.436h-2.486V29.355h14.03L255 31.7h-11.72zm34.632 22.517-2.415-5.612h-12.04l-2.416 5.612h-2.663L269.316 29h.32l10.939 25.217h-2.664zm-13.46-7.92h10.05l-5.043-11.685zm38.716-8.027c0 3.942-2.025 7.6-6.216 8.595l5.647 7.352h-3.019l-5.434-7.068h-6.215v7.068h-2.487V29.355h9.057c5.86 0 8.667 4.227 8.667 8.915zm-15.237-6.606V44.84h6.428c4.475 0 6.358-3.374 6.358-6.571s-1.883-6.606-6.358-6.606h-6.428zm33.246 22.908c-7.103 0-12.68-5.682-12.68-12.786S314.074 29 321.177 29s12.716 5.683 12.716 12.786-5.612 12.786-12.716 12.786zm0-2.344c5.754 0 10.158-4.581 10.158-10.442s-4.404-10.442-10.158-10.442-10.158 4.582-10.158 10.442 4.405 10.442 10.158 10.442zm32.004-13.851c3.374.994 5.399 3.87 5.399 7.742 0 4.227-2.273 7.956-8.88 8.098h-9.447V29.355h9.803c4.368 0 5.54 3.02 5.54 5.008 0 1.811-1.136 3.303-2.415 4.014zm-3.374-6.784h-7.068v6.215h6.322c2.877 0 4.12-1.491 4.12-3.196 0-1.208-.675-3.02-3.374-3.02zm-.39 20.28c4.652 0 6.64-2.522 6.64-5.754 0-3.516-1.881-6.215-6.392-6.215h-6.926v11.97h6.677zm15.097 2.344V29.355h2.486v24.862h-2.486z" fill="#111"/></svg>