<svg width="367" height="93.6">
    <g transform="matrix(1.2012820501522368,0,0,1.2012820501522368,-11.718044847080181,-12.232945639769287)" fill="#586f9b">
        <path
            xmlns="http://www.w3.org/2000/svg" d="M48.3,88.1c-8.5,0-16.7-3.7-22.3-10.6c-4.4-5.4-8.3-10-11.6-13.8c-3.7-4.2-5.3-9.7-4.4-15.2c0.9-5.5,4.1-10.3,9-13.1h0  l39-22.7c5.3-3.1,11.7-3.3,17.2-0.8c5.5,2.6,9.4,7.7,10.4,13.7l5,30.4c1.3,7.9-2.6,15.7-9.7,19.4c-5.1,2.7-12,6-20.4,9.9  C56.6,87.2,52.4,88.1,48.3,88.1z M20.9,38.8c-3.8,2.2-6.3,5.9-7,10.2c-0.7,4.3,0.6,8.7,3.5,11.9c3.4,3.8,7.3,8.5,11.7,13.9  c7.2,8.8,19.4,11.6,29.7,6.8c8.3-3.9,15.1-7.2,20.2-9.9c5.6-2.9,8.6-9,7.6-15.2l-5-30.4c-0.8-4.8-3.8-8.7-8.1-10.7  c-4.4-2.1-9.3-1.8-13.5,0.6L20.9,38.8L20.9,38.8z">
        </path>
    </g>
    <g transform="matrix(0.8879323575904776,0,0,0.8879323575904776,113.80344380905368,18.69998431323115)" fill="#111111">
        <path d="M3.6 40 l0 -28 l2.8 0 l0 28 l-2.8 0 z M17.483000000000004 37.36 l12.36 0 l-0.2 2.64 l-14.96 0 l0 -28 l2.8 0 l0 25.36 z M53.846000000000004 12 l2.8 0 l0 28 l-2.8 0 l0 -13.28 l-15.32 0 l0 13.28 l-2.8 0 l0 -28 l2.8 0 l0 12.08 l15.32 0 l0 -12.08 z M84.129 40 l-2.72 -6.32 l-13.56 0 l-2.72 6.32 l-3 0 l12.32 -28.4 l0.36 0 l12.32 28.4 l-3 0 z M68.96900000000001 31.08 l11.32 0 l-5.68 -13.16 z M119.412 11.600000000000001 l0.4 0 l0 28.4 l-2.76 0 l0 -20.84 l-10.72 14.68 l-0.24 0 l-10.72 -14.6 l0 20.76 l-2.76 0 l0 -28.4 l0.36 0 l13.24 17.8 z M145.818 14.64 l0 9.84 l9.2 0 l0 2.64 l-9.2 0 l0 12.88 l-2.8 0 l0 -28 l15.8 0 l0.2 2.64 l-13.2 0 z M184.82100000000003 40 l-2.72 -6.32 l-13.56 0 l-2.72 6.32 l-3 0 l12.32 -28.4 l0.36 0 l12.32 28.4 l-3 0 z M169.661 31.08 l11.32 0 l-5.68 -13.16 z M213.264 22.04 c0 4.44 -2.28 8.56 -7 9.68 l6.36 8.28 l-3.4 0 l-6.12 -7.96 l-7 0 l0 7.96 l-2.8 0 l0 -28 l10.2 0 c6.6 0 9.76 4.76 9.76 10.04 z M196.104 14.600000000000001 l0 14.84 l7.24 0 c5.04 0 7.16 -3.8 7.16 -7.4 s-2.12 -7.44 -7.16 -7.44 l-7.24 0 z M233.547 40.4 c-8 0 -14.28 -6.4 -14.28 -14.4 s6.28 -14.4 14.28 -14.4 s14.32 6.4 14.32 14.4 s-6.32 14.4 -14.32 14.4 z M233.547 37.76 c6.48 0 11.44 -5.16 11.44 -11.76 s-4.96 -11.76 -11.44 -11.76 s-11.44 5.16 -11.44 11.76 s4.96 11.76 11.44 11.76 z M269.59000000000003 22.16 c3.8 1.12 6.08 4.36 6.08 8.72 c0 4.76 -2.56 8.96 -10 9.12 l-10.64 0 l0 -28 l11.04 0 c4.92 0 6.24 3.4 6.24 5.64 c0 2.04 -1.28 3.72 -2.72 4.52 z M265.79 14.52 l-7.96 0 l0 7 l7.12 0 c3.24 0 4.64 -1.68 4.64 -3.6 c0 -1.36 -0.76 -3.4 -3.8 -3.4 z M265.35 37.36 c5.24 0 7.48 -2.84 7.48 -6.48 c0 -3.96 -2.12 -7 -7.2 -7 l-7.8 0 l0 13.48 l7.52 0 z M282.353 40 l0 -28 l2.8 0 l0 28 l-2.8 0 z"></path>
    </g>
</svg>